:FULLY-SPECIFIED
:FORCE-ALL-JOINTS-BE-3DOF
:DEGREES
81
root 9.24524 16.2775 -25.5019 4.1387 -7.32387 2.23829
lfemur -16.1927 4.49118 -26.6451
ltibia 27.7566 0 0
lfoot -14.8903 7.48782 0
ltoes -1.20259 0 0
rfemur -18.9471 1.65889 16.3261
rtibia 51.9968 0 0
rfoot -8.39362 -11.3193 0
rtoes -12.7477 0 0
lowerback -6.03465 -0.782517 -3.72156
upperback -1.1241 -0.861045 2.60048
thorax 2.3528 -0.476955 4.69529
lowerneck -21.7397 -4.55685 -12.6978
upperneck 18.871 -5.06166 12.0753
head 10.2692 -1.87574 5.68448
lclavicle 4.5426e-015 4.61694e-015 0
lhumerus -29.0881 -12.9377 88.0076
lradius 27.9945 0 0
lwrist 2.69166 0 0
lhand -6.93927 -21.6594 0
lfingers 7.12502 0 0
lthumb 18.9148 7.26238 0
rclavicle 4.5426e-015 4.61694e-015 0
rhumerus -43.1859 12.9801 -88.5653
rradius 38.3658 0 0
rwrist -20.6733 0 0
rhand -29.2451 -23.3098 0
rfingers 7.12502 0 0
rthumb -2.58844 -53.2737 0
82
root 9.25651 16.2792 -25.3874 4.0722 -7.05869 2.33505
lfemur -15.5208 4.28789 -26.8149
ltibia 27.4394 0 0
lfoot -15.1506 7.48581 0
ltoes -1.08155 0 0
rfemur -19.8995 1.77084 16.3794
rtibia 51.8614 0 0
rfoot -9.33554 -11.4027 0
rtoes -13.2523 0 0
lowerback -6.07771 -0.856802 -3.79802
upperback -1.06957 -0.954372 2.60494
thorax 2.44407 -0.527164 4.73595
lowerneck -21.6893 -4.58247 -12.753
upperneck 18.941 -5.07997 12.0296
head 10.2876 -1.89524 5.67611
lclavicle 3.48906e-015 4.87343e-015 0
lhumerus -28.4926 -13.3882 87.9842
lradius 28.4042 0 0
lwrist 3.06578 0 0
lhand -7.44723 -21.8948 0
lfingers 7.12502 0 0
lthumb 18.4267 7.07925 0
rclavicle 3.48906e-015 4.87343e-015 0
rhumerus -43.2002 12.9519 -88.4224
rradius 38.3912 0 0
rwrist -20.75 0 0
rhand -29.2373 -23.1822 0
rfingers 7.12502 0 0
rthumb -2.58087 -53.1463 0
83
root 9.26777 16.2808 -25.2729 4.00571 -6.79351 2.43182
lfemur -14.8489 4.08459 -26.9847
ltibia 27.1223 0 0
lfoot -15.4108 7.48379 0
ltoes -0.960515 0 0
rfemur -20.8519 1.88279 16.4328
rtibia 51.7259 0 0
rfoot -10.2775 -11.4861 0
rtoes -13.7569 0 0
lowerback -6.12077 -0.931088 -3.87448
upperback -1.01504 -1.0477 2.60939
thorax 2.53534 -0.577373 4.77661
lowerneck -21.639 -4.60809 -12.8082
upperneck 19.0111 -5.09828 11.9839
head 10.306 -1.91474 5.66775
lclavicle 2.43552e-015 5.12993e-015 0
lhumerus -27.8971 -13.8388 87.9607
lradius 28.8139 0 0
lwrist 3.4399 0 0
lhand -7.95519 -22.1302 0
lfingers 7.12502 0 0
lthumb 17.9386 6.89613 0
rclavicle 2.43552e-015 5.12993e-015 0
rhumerus -43.2145 12.9238 -88.2795
rradius 38.4166 0 0
rwrist -20.8267 0 0
rhand -29.2294 -23.0547 0
rfingers 7.12502 0 0
rthumb -2.5733 -53.0189 0
84
root 9.27903 16.2825 -25.1584 3.93921 -6.52833 2.52859
lfemur -14.1769 3.8813 -27.1545
ltibia 26.8051 0 0
lfoot -15.671 7.48177 0
ltoes -0.839475 0 0
rfemur -21.8042 1.99474 16.4861
rtibia 51.5904 0 0
rfoot -11.2194 -11.5695 0
rtoes -14.2615 0 0
lowerback -6.16383 -1.00537 -3.95093
upperback -0.960504 -1.14103 2.61384
thorax 2.62661 -0.627582 4.81726
lowerneck -21.5886 -4.63371 -12.8635
upperneck 19.0812 -5.11659 11.9382
head 10.3245 -1.93424 5.65939
lclavicle 1.38198e-015 5.38643e-015 0
lhumerus -27.3016 -14.2893 87.9373
lradius 29.2236 0 0
lwrist 3.81402 0 0
lhand -8.46316 -22.3657 0
lfingers 7.12502 0 0
lthumb 17.4506 6.71301 0
rclavicle 1.38198e-015 5.38643e-015 0
rhumerus -43.2288 12.8957 -88.1367
rradius 38.442 0 0
rwrist -20.9034 0 0
rhand -29.2216 -22.9272 0
rfingers 7.12502 0 0
rthumb -2.56573 -52.8915 0
85
root 9.2903 16.2841 -25.0439 3.87271 -6.26315 2.62536
lfemur -13.505 3.678 -27.3243
ltibia 26.4879 0 0
lfoot -15.9313 7.47975 0
ltoes -0.718436 0 0
rfemur -22.7566 2.10669 16.5395
rtibia 51.455 0 0
rfoot -12.1613 -11.6529 0
rtoes -14.7661 0 0
lowerback -6.20689 -1.07966 -4.02739
upperback -0.90597 -1.23435 2.6183
thorax 2.71787 -0.67779 4.85792
lowerneck -21.5382 -4.65933 -12.9187
upperneck 19.1512 -5.1349 11.8925
head 10.3429 -1.95373 5.65102
lclavicle 3.28441e-016 5.64292e-015 0
lhumerus -26.706 -14.7399 87.9138
lradius 29.6333 0 0
lwrist 4.18813 0 0
lhand -8.97112 -22.6011 0
lfingers 7.12502 0 0
lthumb 16.9625 6.52988 0
rclavicle 3.28441e-016 5.64292e-015 0
rhumerus -43.2431 12.8675 -87.9938
rradius 38.4675 0 0
rwrist -20.9801 0 0
rhand -29.2137 -22.7997 0
rfingers 7.12502 0 0
rthumb -2.55816 -52.764 0
86
root 9.30156 16.2858 -24.9294 3.80621 -5.99797 2.72212
lfemur -12.8331 3.47471 -27.4941
ltibia 26.1707 0 0
lfoot -16.1915 7.47773 0
ltoes -0.597396 0 0
rfemur -23.7089 2.21865 16.5928
rtibia 51.3195 0 0
rfoot -13.1032 -11.7363 0
rtoes -15.2707 0 0
lowerback -6.24995 -1.15394 -4.10385
upperback -0.851437 -1.32768 2.62275
thorax 2.80914 -0.727999 4.89858
lowerneck -21.4878 -4.68495 -12.974
upperneck 19.2213 -5.15321 11.8468
head 10.3613 -1.97323 5.64266
lclavicle -7.25098e-016 5.89942e-015 0
lhumerus -26.1105 -15.1904 87.8904
lradius 30.043 0 0
lwrist 4.56225 0 0
lhand -9.47909 -22.8366 0
lfingers 7.12502 0 0
lthumb 16.4745 6.34676 0
rclavicle -7.25098e-016 5.89942e-015 0
rhumerus -43.2574 12.8394 -87.851
rradius 38.4929 0 0
rwrist -21.0568 0 0
rhand -29.2059 -22.6722 0
rfingers 7.12502 0 0
rthumb -2.55059 -52.6366 0
87
root 9.31283 16.2874 -24.8149 3.73971 -5.7328 2.81889
lfemur -12.1611 3.27142 -27.664
ltibia 25.8535 0 0
lfoot -16.4518 7.47572 0
ltoes -0.476356 0 0
rfemur -24.6613 2.3306 16.6462
rtibia 51.1841 0 0
rfoot -14.0452 -11.8196 0
rtoes -15.7753 0 0
lowerback -6.293 -1.22823 -4.1803
upperback -0.796904 -1.42101 2.62721
thorax 2.90041 -0.778208 4.93923
lowerneck -21.4374 -4.71057 -13.0292
upperneck 19.2913 -5.17151 11.8011
head 10.3797 -1.99273 5.63429
lclavicle -1.77864e-015 6.15591e-015 0
lhumerus -25.515 -15.641 87.867
lradius 30.4527 0 0
lwrist 4.93637 0 0
lhand -9.98705 -23.072 0
lfingers 7.12502 0 0
lthumb 15.9864 6.16363 0
rclavicle -1.77864e-015 6.15591e-015 0
rhumerus -43.2716 12.8112 -87.7081
rradius 38.5183 0 0
rwrist -21.1334 0 0
rhand -29.1981 -22.5446 0
rfingers 7.12502 0 0
rthumb -2.54301 -52.5092 0
88
root 9.32409 16.2891 -24.7004 3.67321 -5.46762 2.91566
lfemur -11.4892 3.06812 -27.8338
ltibia 25.5364 0 0
lfoot -16.712 7.4737 0
ltoes -0.355316 0 0
rfemur -25.6136 2.44255 16.6995
rtibia 51.0486 0 0
rfoot -14.9871 -11.903 0
rtoes -16.2799 0 0
lowerback -6.33606 -1.30252 -4.25676
upperback -0.742371 -1.51434 2.63166
thorax 2.99168 -0.828417 4.97989
lowerneck -21.3871 -4.73619 -13.0844
upperneck 19.3614 -5.18982 11.7554
head 10.3981 -2.01223 5.62593
lclavicle -2.83218e-015 6.41241e-015 0
lhumerus -24.9195 -16.0915 87.8435
lradius 30.8624 0 0
lwrist 5.31049 0 0
lhand -10.495 -23.3074 0
lfingers 7.12502 0 0
lthumb 15.4983 5.98051 0
rclavicle -2.83218e-015 6.41241e-015 0
rhumerus -43.2859 12.7831 -87.5652
rradius 38.5437 0 0
rwrist -21.2101 0 0
rhand -29.1902 -22.4171 0
rfingers 7.12502 0 0
rthumb -2.53544 -52.3818 0
89
root 9.33536 16.2907 -24.5859 3.60671 -5.20244 3.01242
lfemur -10.8173 2.86483 -28.0036
ltibia 25.2192 0 0
lfoot -16.9722 7.47168 0
ltoes -0.234277 0 0
rfemur -26.566 2.5545 16.7529
rtibia 50.9132 0 0
rfoot -15.929 -11.9864 0
rtoes -16.7845 0 0
lowerback -6.37912 -1.3768 -4.33322
upperback -0.687838 -1.60766 2.63612
thorax 3.08295 -0.878626 5.02055
lowerneck -21.3367 -4.7618 -13.1397
upperneck 19.4314 -5.20813 11.7098
head 10.4165 -2.03172 5.61757
lclavicle -3.88571e-015 6.66891e-015 0
lhumerus -24.3239 -16.5421 87.8201
lradius 31.2721 0 0
lwrist 5.68461 0 0
lhand -11.003 -23.5429 0
lfingers 7.12502 0 0
lthumb 15.0103 5.79739 0
rclavicle -3.88571e-015 6.66891e-015 0
rhumerus -43.3002 12.7549 -87.4224
rradius 38.5691 0 0
rwrist -21.2868 0 0
rhand -29.1824 -22.2896 0
rfingers 7.12502 0 0
rthumb -2.52787 -52.2543 0
